HIERARCHY
ROOT Hips
{
	OFFSET 0.000000 89.005402 0.000000
	CHANNELS 6 Xposition Yposition Zposition Xrotation Yrotation Zrotation
	JOINT Spine
	{
		OFFSET 0.116900 10.681000 0.373400
		CHANNELS 3 Xrotation Yrotation Zrotation
		JOINT Spine1
		{
			OFFSET 0.000000 13.840401 0.053500
			CHANNELS 3 Xrotation Yrotation Zrotation
			JOINT Spine2
			{
				OFFSET 0.000000 14.712700 -0.366200
				CHANNELS 3 Xrotation Yrotation Zrotation
				JOINT Neck
				{
					OFFSET 0.000000 35.415497 -3.314200
					CHANNELS 3 Xrotation Yrotation Zrotation
					JOINT Head
					{
						OFFSET 0.000000 16.899200 1.218300
						CHANNELS 3 Xrotation Yrotation Zrotation
						JOINT HeadTop_End
						{
							OFFSET 0.000000 22.206207 2.192500
							CHANNELS 3 Xrotation Yrotation Zrotation
							End Site
							{
								OFFSET 0.000000 22.314178 0.000000
							}
						}
					}
				}
				JOINT LeftShoulder
				{
					OFFSET 12.896400 26.716293 -4.548400
					CHANNELS 3 Xrotation Yrotation Zrotation
					JOINT LeftArm
					{
						OFFSET 19.027000 -4.857010 -1.718400
						CHANNELS 3 Xrotation Yrotation Zrotation
						JOINT LeftForeArm
						{
							OFFSET 24.179897 0.000000 0.000000
							CHANNELS 3 Xrotation Yrotation Zrotation
							JOINT LeftHand
							{
								OFFSET 27.156403 0.000000 0.000000
								CHANNELS 3 Xrotation Yrotation Zrotation
								JOINT LeftHandIndex1
								{
									OFFSET 16.441200 0.000000 0.000000
									CHANNELS 3 Xrotation Yrotation Zrotation
									JOINT LeftHandIndex2
									{
										OFFSET 4.821899 0.000000 0.000000
										CHANNELS 3 Xrotation Yrotation Zrotation
										JOINT LeftHandIndex3
										{
											OFFSET 6.386497 0.000000 0.000000
											CHANNELS 3 Xrotation Yrotation Zrotation
											JOINT LeftHandIndex4
											{
												OFFSET 5.188988 0.000000 0.000000
												CHANNELS 3 Xrotation Yrotation Zrotation
												End Site
												{
													OFFSET -0.178703 5.185913 0.000177
												}
											}
										}
									}
								}
								JOINT LeftHandThumb1
								{
									OFFSET 6.534897 -5.032593 5.900300
									CHANNELS 3 Xrotation Yrotation Zrotation
									JOINT LeftHandThumb2
									{
										OFFSET 3.818176 -2.204422 2.204423
										CHANNELS 3 Xrotation Yrotation Zrotation
										JOINT LeftHandThumb3
										{
											OFFSET 3.252098 -1.877594 1.877601
											CHANNELS 3 Xrotation Yrotation Zrotation
											JOINT LeftHandThumb4
											{
												OFFSET 5.251778 -3.032120 3.032117
												CHANNELS 3 Xrotation Yrotation Zrotation
												End Site
												{
													OFFSET 0.000023 6.780014 0.000000
												}
											}
										}
									}
								}
							}
						}
					}
				}
				JOINT RightShoulder
				{
					OFFSET -12.896300 26.716293 -4.548400
					CHANNELS 3 Xrotation Yrotation Zrotation
					JOINT RightArm
					{
						OFFSET -19.027000 -4.857010 -1.718400
						CHANNELS 3 Xrotation Yrotation Zrotation
						JOINT RightForeArm
						{
							OFFSET -24.179897 0.000000 0.000000
							CHANNELS 3 Xrotation Yrotation Zrotation
							JOINT RightHand
							{
								OFFSET -27.156403 0.000000 0.000000
								CHANNELS 3 Xrotation Yrotation Zrotation
								JOINT RightHandThumb1
								{
									OFFSET -6.591202 -4.852203 5.988100
									CHANNELS 3 Xrotation Yrotation Zrotation
									JOINT RightHandThumb2
									{
										OFFSET -3.818176 -2.204422 2.204423
										CHANNELS 3 Xrotation Yrotation Zrotation
										JOINT RightHandThumb3
										{
											OFFSET -3.252098 -1.877594 1.877601
											CHANNELS 3 Xrotation Yrotation Zrotation
											JOINT RightHandThumb4
											{
												OFFSET -5.251778 -3.032120 3.032117
												CHANNELS 3 Xrotation Yrotation Zrotation
												End Site
												{
													OFFSET -0.000023 6.780014 0.000000
												}
											}
										}
									}
								}
								JOINT RightHandIndex1
								{
									OFFSET -16.029404 0.000000 0.000000
									CHANNELS 3 Xrotation Yrotation Zrotation
									JOINT RightHandIndex2
									{
										OFFSET -5.213303 0.000000 0.000000
										CHANNELS 3 Xrotation Yrotation Zrotation
										JOINT RightHandIndex3
										{
											OFFSET -6.386528 0.000000 0.000000
											CHANNELS 3 Xrotation Yrotation Zrotation
											JOINT RightHandIndex4
											{
												OFFSET -5.189026 0.000000 0.000000
												CHANNELS 3 Xrotation Yrotation Zrotation
												End Site
												{
													OFFSET 0.236702 5.183624 0.001972
												}
											}
										}
									}
								}
							}
						}
					}
				}
			}
		}
	}
	JOINT LeftUpLeg
	{
		OFFSET 14.073000 -7.904099 -1.463000
		CHANNELS 3 Xrotation Yrotation Zrotation
		JOINT LeftLeg
		{
			OFFSET -0.109806 -34.073280 4.093200
			CHANNELS 3 Xrotation Yrotation Zrotation
			JOINT LeftFoot
			{
				OFFSET 0.109806 -29.899420 -6.319000
				CHANNELS 3 Xrotation Yrotation Zrotation
				JOINT LeftToeBase
				{
					OFFSET 1.551100 -14.988700 20.535801
					CHANNELS 3 Xrotation Yrotation Zrotation
					JOINT LeftToe_End
					{
						OFFSET 0.221200 0.570800 13.248301
						CHANNELS 3 Xrotation Yrotation Zrotation
						End Site
						{
							OFFSET 0.000000 13.262435 0.000000
						}
					}
				}
			}
		}
	}
	JOINT RightUpLeg
	{
		OFFSET -13.839300 -7.904099 -1.463000
		CHANNELS 3 Xrotation Yrotation Zrotation
		JOINT RightLeg
		{
			OFFSET 0.109694 -34.073219 4.093300
			CHANNELS 3 Xrotation Yrotation Zrotation
			JOINT RightFoot
			{
				OFFSET -0.109694 -29.899384 -6.319200
				CHANNELS 3 Xrotation Yrotation Zrotation
				JOINT RightToeBase
				{
					OFFSET -1.551100 -14.988700 20.535801
					CHANNELS 3 Xrotation Yrotation Zrotation
					JOINT RightToe_End
					{
						OFFSET -0.221200 0.570900 13.248299
						CHANNELS 3 Xrotation Yrotation Zrotation
						End Site
						{
							OFFSET 0.000000 13.262440 0.000000
						}
					}
				}
			}
		}
	}
}
MOTION
Frames: 9
Frame Time: 0.033333
-0.384553 71.819817 -0.075038 -5.398680 -46.211984 -0.238044 9.452222 7.171242 -1.616278 2.187717 0.989892 -0.915629 2.202828 0.982770 -0.894151 0.084650 13.220562 4.538677 8.920923 20.138140 -4.130232 0.000000 0.000000 0.000000 1.117176 3.546353 -8.633313 -53.487020 4.935498 -51.503004 0.000105 -106.358073 0.000096 1.988607 -7.706152 -15.869260 0.255311 3.378214 -45.814344 5.654094 5.847759 -88.067462 2.162145 4.544814 -50.866386 -0.000001 0.000001 0.000002 -6.141211 -11.690804 -6.761684 9.914122 42.595529 3.409852 -0.422809 8.108093 27.509111 -0.000001 0.000001 0.000001 3.036127 13.027200 -5.371410 -48.713715 27.172832 83.457071 0.000278 105.988273 -0.000284 -8.345369 17.548098 8.775683 -7.341103 13.749657 7.412335 9.855736 -44.489100 -3.903288 -0.115781 -14.513088 -28.973874 -0.000002 -0.000000 -0.000002 -0.124377 -2.384787 45.108851 4.500585 -4.654548 88.071150 1.723226 -3.618379 50.920116 0.000001 -0.000000 -0.000000 -31.861460 6.395805 19.963974 59.337665 -8.188289 3.970981 -25.244815 -6.905762 -16.448598 -1.594040 -0.000019 0.000004 -0.000000 -0.000000 -0.000000 -18.986225 -11.114480 -32.040851 59.475095 -5.224291 -6.737412 -30.568894 -9.909654 26.194288 -0.013000 -0.000005 -0.000003 0.000000 0.000000 -0.000000 
-0.617987 71.510025 0.161686 -7.204527 -44.938915 -1.483337 9.001675 6.553041 -0.689594 1.885471 0.910779 -0.622830 1.898480 0.909357 -0.605639 2.517801 12.107209 3.539409 11.988753 19.358086 -5.617049 -0.000002 -0.000000 0.000000 1.289236 1.296981 -9.952505 -52.308017 2.647051 -50.782480 0.000331 -101.267697 0.000336 1.072053 -9.180211 -10.938052 0.255312 3.378215 -45.814341 5.654094 5.847757 -88.067462 2.162146 4.544816 -50.866386 -0.000000 -0.000002 -0.000001 -6.141210 -11.690804 -6.761683 9.914114 42.595525 3.409849 -0.422810 8.108094 27.509115 -0.000001 0.000000 -0.000002 2.910983 13.334671 -4.741881 -49.253105 28.660539 82.838911 -0.000200 102.276434 0.000201 -11.223102 17.849728 7.609502 -7.341103 13.749658 7.412337 9.855737 -44.489107 -3.903290 -0.115784 -14.513086 -28.973871 -0.000002 0.000000 -0.000001 -0.124376 -2.384789 45.108857 4.500581 -4.654548 88.071150 1.723229 -3.618380 50.920119 0.000000 -0.000001 -0.000000 -31.039218 6.076262 19.468985 60.387103 -8.810691 4.680175 -25.908224 -6.833571 -16.329012 -1.678833 -0.000007 0.000001 -0.000000 -0.000000 0.000000 -17.124326 -12.051281 -31.903506 60.420700 -5.709751 -7.266950 -31.841065 -10.555309 25.665266 -0.284773 0.000005 0.000008 0.000000 -0.000000 0.000000 
-1.185486 71.220039 0.544059 -10.839537 -41.972995 -3.310947 8.188909 5.941860 0.396815 1.630356 0.839152 -0.356851 1.641152 0.839126 -0.342237 4.894642 10.645460 2.418932 19.176352 15.779120 -6.848116 -0.000000 -0.000000 0.000000 1.516317 -0.133513 -11.835038 -47.758749 -3.827042 -53.408623 0.062200 -91.098160 0.062189 -1.503159 -12.412769 -3.250806 0.255312 3.378215 -45.814341 5.654092 5.847757 -88.067455 2.162146 4.544815 -50.866386 -0.000000 -0.000002 -0.000001 -6.141211 -11.690804 -6.761682 9.914121 42.595529 3.409848 -0.422807 8.108089 27.509111 -0.000000 0.000000 -0.000001 2.666186 13.028642 -3.375325 -47.365132 31.377855 80.261772 0.000486 98.785764 -0.000500 -16.164459 17.363451 6.488785 -7.341102 13.749657 7.412336 9.855733 -44.489096 -3.903288 -0.115777 -14.513086 -28.973871 -0.000001 0.000001 -0.000001 -0.124374 -2.384788 45.108854 4.500582 -4.654546 88.071150 1.723227 -3.618380 50.920116 -0.000001 0.000001 0.000002 -28.620009 5.677039 17.791787 61.213009 -10.024954 6.096846 -26.488809 -6.780117 -16.123495 -2.336968 -0.000019 0.000000 0.000000 0.000002 -0.000000 -13.570600 -14.070748 -32.866618 62.578514 -5.108379 -7.516067 -32.716022 -12.423423 24.848978 -1.845240 0.000017 -0.000003 -0.000000 0.000001 -0.000000 
-2.066898 71.059235 1.071466 -15.763850 -37.536186 -5.032266 6.973715 5.558884 1.515268 1.521410 0.818827 -0.112078 1.528771 0.817177 -0.098149 6.159944 9.202859 1.263282 25.703306 11.841496 -7.341327 -0.000001 -0.000000 -0.000001 1.566980 -0.673229 -12.929944 -39.937451 -13.239779 -58.533717 -0.000042 -76.103013 -0.000048 -5.195600 -16.313050 2.744808 0.255313 3.378211 -45.814341 5.654098 5.847758 -88.067469 2.162144 4.544815 -50.866386 -0.000000 -0.000001 -0.000003 -6.141213 -11.690804 -6.761682 9.914121 42.595529 3.409850 -0.422806 8.108090 27.509109 -0.000000 0.000000 0.000000 2.303946 11.794897 -1.338402 -43.277151 36.384366 75.013413 -0.000703 96.260745 0.000669 -19.244999 16.474063 4.672756 -7.341102 13.749655 7.412338 9.855739 -44.489103 -3.903287 -0.115777 -14.513092 -28.973871 -0.000000 -0.000003 0.000002 -0.124374 -2.384785 45.108857 4.500582 -4.654546 88.071150 1.723227 -3.618380 50.920119 0.000001 -0.000001 0.000001 -24.504274 5.287303 15.167536 61.368471 -10.756436 8.161921 -26.904967 -7.663129 -16.455707 -3.968620 -0.000008 0.000003 -0.000000 -0.000001 0.000000 -8.597150 -17.013554 -34.888541 65.790732 -3.987537 -7.267422 -32.494283 -15.082946 23.517571 -4.322019 -0.000935 0.277454 0.000000 -0.000001 0.000001 
-3.167343 71.151390 1.673674 -21.133649 -32.642857 -6.102875 5.548397 5.344074 2.514455 1.489266 0.837434 0.141665 1.492597 0.833450 0.156092 6.040399 8.063308 0.469820 25.878564 11.525191 -9.208595 0.000000 0.000000 0.000000 1.322976 -1.772271 -12.371833 -30.843345 -21.227801 -63.291565 -0.000018 -59.474118 -0.000009 -7.586046 -18.623419 1.801955 0.255311 3.378216 -45.814341 5.654095 5.847756 -88.067462 2.162144 4.544816 -50.866382 0.000003 -0.000001 0.000003 -6.141213 -11.690802 -6.761685 9.914119 42.595529 3.409847 -0.422810 8.108091 27.509113 0.000001 -0.000000 -0.000000 1.927635 9.945205 0.652398 -39.224414 43.323651 67.534329 0.001721 94.632852 -0.001720 -16.829702 15.636217 1.944323 -7.341100 13.749657 7.412335 9.855742 -44.489096 -3.903292 -0.115782 -14.513092 -28.973867 -0.000000 0.000003 -0.000002 -0.124375 -2.384785 45.108854 4.500586 -4.654546 88.071150 1.723226 -3.618378 50.920116 0.000000 0.000000 0.000005 -18.963750 4.748052 12.573266 60.296623 -10.588856 9.828041 -27.047148 -9.818216 -17.395467 -6.800374 0.000006 -0.000000 0.000001 -0.000001 0.000000 -3.221543 -20.632176 -36.507467 68.591335 -3.316697 -8.465716 -30.917808 -17.629056 22.128186 -7.108825 -0.038367 1.761218 0.000000 -0.000000 -0.000001 
-4.318170 71.450455 2.246342 -26.412463 -28.491629 -6.492147 4.241492 5.186670 3.274833 1.417984 0.873314 0.471399 1.416832 0.868707 0.486002 4.696709 7.413381 0.130397 18.042906 16.135162 -11.773805 -0.000000 0.000000 0.000000 1.030985 -4.382238 -11.538280 -21.130298 -24.151977 -65.639368 0.000020 -45.263920 0.000014 -5.938209 -18.160655 -3.569799 0.255315 3.378216 -45.814341 5.654092 5.847757 -88.067462 2.162142 4.544819 -50.866386 -0.000001 0.000000 -0.000003 -6.141208 -11.690799 -6.761677 9.914122 42.595529 3.409850 -0.422806 8.108092 27.509115 -0.000003 0.000000 -0.000000 1.619743 8.298231 1.861337 -39.281388 49.500167 60.748447 0.000868 93.199584 -0.000840 -11.744752 14.652277 -1.007540 -7.341101 13.749656 7.412336 9.855738 -44.489107 -3.903298 -0.115776 -14.513098 -28.973867 0.000003 -0.000001 -0.000001 -0.124375 -2.384786 45.108857 4.500584 -4.654546 88.071150 1.723227 -3.618379 50.920112 0.000000 -0.000000 0.000001 -12.662533 4.009121 10.933869 58.092221 -10.116383 9.845012 -26.865842 -12.708796 -18.216272 -9.819003 0.000011 0.000005 0.000001 -0.000000 0.000000 2.165822 -23.379966 -37.630015 70.376691 -2.541091 -9.579725 -30.356550 -17.322089 20.334557 -8.687581 -0.278328 4.679221 -0.000000 -0.000000 0.000000 
-5.389297 71.813225 2.684803 -31.044668 -25.447825 -6.485446 3.277762 5.088876 3.902701 1.333446 0.923243 0.862870 1.327093 0.920780 0.876964 2.569794 6.891782 0.162408 2.992315 22.121593 -10.595497 0.000000 0.000000 -0.000000 0.841781 -7.549477 -11.916674 -12.096455 -20.254562 -65.901128 0.000008 -33.370426 0.000007 -1.581697 -16.455690 -5.816701 0.255311 3.378212 -45.814344 5.654094 5.847753 -88.067462 2.162151 4.544813 -50.866386 -0.000002 0.000001 -0.000002 -6.141210 -11.690802 -6.761687 9.914120 42.595525 3.409852 -0.422809 8.108092 27.509113 0.000001 0.000001 0.000001 1.394240 7.344936 1.780893 -47.793409 51.687050 59.985221 -0.068270 90.727643 0.068360 -10.620088 14.150929 -3.822074 -7.341103 13.749657 7.412342 9.855732 -44.489103 -3.903299 -0.115783 -14.513092 -28.973874 0.000000 -0.000001 -0.000001 -0.124375 -2.384786 45.108857 4.500583 -4.654546 88.071150 1.723228 -3.618379 50.920116 0.000001 -0.000001 -0.000001 -6.727286 3.790696 9.847232 55.543293 -9.726543 9.855919 -26.547052 -15.306285 -19.104767 -12.376166 0.000018 0.000001 0.000000 -0.000001 -0.000001 6.651812 -24.482962 -37.808355 71.099121 -2.257020 -9.495523 -33.375450 -12.592156 18.355968 -8.739003 -0.575102 6.733339 -0.000000 0.000000 0.000000 
-6.406375 71.908134 2.795746 -34.452140 -22.983805 -6.094694 2.770282 5.023408 4.352596 1.348826 0.971136 1.182367 1.337743 0.972279 1.196587 0.171454 5.652560 1.013441 -16.290763 23.367279 -5.563716 -0.000002 0.000000 -0.000001 0.641814 -10.285465 -13.071439 -5.384194 -10.408551 -64.414968 -0.000021 -21.468340 -0.000016 2.625406 -14.828827 -2.858402 0.255308 3.378214 -45.814341 5.654092 5.847756 -88.067462 2.162146 4.544814 -50.866382 -0.000001 -0.000000 0.000000 -6.141216 -11.690802 -6.761683 9.914122 42.595529 3.409851 -0.422809 8.108092 27.509111 -0.000001 -0.000001 -0.000002 1.228717 6.797976 0.403575 -62.713233 48.519335 65.255552 0.003216 86.358405 -0.003218 -12.842047 14.124564 -5.523247 -7.341103 13.749655 7.412335 9.855739 -44.489110 -3.903292 -0.115779 -14.513093 -28.973871 0.000000 0.000001 -0.000001 -0.124376 -2.384788 45.108857 4.500586 -4.654546 88.071150 1.723228 -3.618375 50.920119 0.000003 -0.000001 0.000001 -2.766116 3.967061 9.595168 53.790800 -10.169898 9.874934 -26.078412 -17.558970 -19.740232 -12.873699 0.000006 0.000003 -0.000000 -0.000000 -0.000001 9.221583 -22.482761 -35.184094 71.238552 -4.740105 -9.357311 -37.354311 -7.578465 19.532207 -7.428933 -0.410356 5.771634 -0.000000 -0.000001 -0.000000 
-7.322896 71.558311 2.325161 -36.472780 -20.509764 -5.239544 2.782114 4.839110 4.748212 1.464859 0.990068 1.382948 1.450694 0.996583 1.397477 -1.834370 3.585423 2.553517 -34.197056 18.441427 -1.758220 0.000002 -0.000000 0.000000 0.446003 -12.502886 -13.403511 -1.243604 1.362881 -60.975974 0.000004 -10.334612 0.000012 4.000835 -11.357226 1.713143 0.255306 3.378215 -45.814341 5.654098 5.847756 -88.067462 2.162142 4.544814 -50.866386 -0.000003 -0.000000 -0.000001 -6.141214 -11.690799 -6.761685 9.914120 42.595525 3.409852 -0.422809 8.108091 27.509108 -0.000000 0.000000 -0.000000 1.090578 6.258364 -1.791311 -77.495839 41.784113 71.222487 0.000141 80.180950 -0.000153 -12.901372 14.159542 -6.036251 -7.341100 13.749655 7.412336 9.855737 -44.489107 -3.903289 -0.115777 -14.513090 -28.973867 -0.000002 -0.000001 -0.000001 -0.124375 -2.384787 45.108854 4.500584 -4.654546 88.071143 1.723225 -3.618374 50.920116 0.000001 -0.000001 -0.000002 -1.776776 4.292059 10.231710 53.248769 -10.473836 9.873313 -25.454155 -20.817824 -20.686319 -12.004105 0.000010 0.000003 0.000001 0.000001 -0.000000 10.093379 -17.964296 -29.435916 71.720326 -7.505551 -9.382152 -39.318599 -9.433694 20.259430 -5.858896 -0.075465 2.509439 0.000000 -0.000000 -0.000000 
